<?xml version="1.0" encoding="UTF-8"?>
<svg id="Layer_1" data-name="Layer 1" xmlns="http://www.w3.org/2000/svg" viewBox="0 0 500 500">
  <defs>
    <style>
      .cls-1 {
        fill: #2f6c4f;
        font-family: Inter-Regular, Inter;
        font-size: 15.39px;
        font-variation-settings: 'opsz' 14, 'wght' 400;
      }

      .cls-2 {
        letter-spacing: -.02em;
      }

      .cls-3 {
        fill: #2e2e2e;
      }
    </style>
  </defs>
  <g>
    <path class="cls-3" d="M218.95,286.59v-23.37c7.86,3.68,16.37,4.45,23.37-1.53,7.03-6.01,8.05-16.47,2.15-23.69-11.15-13.63-31.36-5.23-32.31,11.36l-.1,64.46-19.86,18.88c-.05-2.72-.82-5.6-.94-8.27-1.07-22.55-1.45-53.29.03-75.65,3.66-55.25,79.45-48.25,78.11.64-.72,26.29-25.63,42.33-50.45,37.17Z"/>
    <path class="cls-3" d="M430.47,210.96v76.25h-20.91v-39.66c0-2.61-3.1-7.82-4.91-9.85-8.23-9.25-24.72-7.63-29.84,4.01-7.56,17.19,13.74,31.64,27.98,20.91v23.98c-11.95,1.58-22.22,1.32-32.54-5.28-31.45-20.12-18.99-68.64,18.68-70.99,4.33-.27,7.89.87,11.71.91,9.9.09,19.91-.62,29.82-.27Z"/>
    <path class="cls-3" d="M332.09,196.2v12.61c0,.33.95,1.37.61,2.15h15.37v20.91h-15.37c-1.27,13.25,1.1,28.18,15.37,32.59v22.75c-14.24-3.78-26.94-13.52-32.7-27.25-1.21-2.89-3.58-10.14-3.58-13.02v-50.73h20.29Z"/>
    <path class="cls-3" d="M151.31,210.96c.28,1.19-.43,1.18-1.04,1.73-22.71,20.7-44.94,42.04-67.82,62.53-3.92,3.51-8.29,7.94-12.92,10.14v-27.36l51.96-47.04h29.82Z"/>
    <rect class="cls-3" x="159.3" y="210.96" width="21.52" height="72.56"/>
    <rect class="cls-3" x="279.21" y="210.96" width="21.52" height="72.56"/>
    <polygon class="cls-3" points="90.43 167.3 90.43 231.55 69.53 250.31 69.53 167.3 90.43 167.3"/>
    <polygon class="cls-3" points="151.31 283.51 122.72 283.51 103.36 264.14 118.41 250.32 151.31 283.51"/>
    <path class="cls-3" d="M286.42,179.12c21.09-3.89,20.28,27.22,1.23,24.3-14.02-2.15-13.04-22.13-1.23-24.3Z"/>
    <path class="cls-3" d="M179.38,199.67c-11.15,11.99-30.13-5.43-18.26-17.34,11.23-11.27,29.52,5.23,18.26,17.34Z"/>
  </g>
  <text class="cls-1" transform="translate(277.36 306.32)"><tspan x="0" y="0">Ride. Sha</tspan><tspan class="cls-2" x="68.4" y="0">r</tspan><tspan x="73.94" y="0">e. Connect</tspan></text>
</svg>